Coordinates
version=1
nRows=10
nColumns=40
inDegrees=yes

Units are S.I. units (second, meters, Newtons, ...)
If the header above contains a line with 'inDegrees', this indicates whether rotational values are in degrees (yes) or radians (no).

endheader
time	pelvis_tilt	pelvis_list	pelvis_rotation	pelvis_tx	pelvis_ty	pelvis_tz	hip_flexion_r	hip_adduction_r	hip_rotation_r	knee_angle_r	knee_angle_r_beta	ankle_angle_r	subtalar_angle_r	mtp_angle_r	hip_flexion_l	hip_adduction_l	hip_rotation_l	knee_angle_l	knee_angle_l_beta	ankle_angle_l	subtalar_angle_l	mtp_angle_l	lumbar_extension	lumbar_bending	lumbar_rotation	arm_flex_r	arm_add_r	arm_rot_r	elbow_flex_r	pro_sup_r	wrist_flex_r	wrist_dev_r	arm_flex_l	arm_add_l	arm_rot_l	elbow_flex_l	pro_sup_l	wrist_flex_l	wrist_dev_l
      3.70000000	      2.94967413	      2.81742648	      8.45326924	     -0.41542504	      0.35077191	     -1.03303583	     79.47650197	    -10.10419198	     -4.46624132	      5.99627864	      0.10465481	    -19.42234841	      0.00000000	      0.00000000	    100.76811556	      6.09942301	    -11.36751093	    147.37837516	      2.57223789	     32.62577996	      0.00000000	      0.00000000	    -27.21050777	     -4.15797486	     -9.22910919	     89.95667158	     -6.97174768	      7.33158812	     43.25786295	     66.70166022	      0.00000000	      0.00000000	     89.96001389	    -17.57051015	      9.91579611	     49.00194440	     75.53870233	      0.00000000	      0.00000000
      3.70500000	      3.08187070	      2.85825254	      8.17487989	     -0.41522623	      0.35020650	     -1.03255011	     79.42109352	     -9.80498998	     -4.57594043	      6.02614931	      0.10517615	    -19.58017135	      0.00000000	      0.00000000	    100.70508899	      5.80026367	    -11.32134047	    147.53225565	      2.57492361	     32.63529174	      0.00000000	      0.00000000	    -27.31268904	     -4.31696175	     -8.96371713	     89.95653901	     -7.00972759	      7.99646557	     43.50930754	     60.19274009	      0.00000000	      0.00000000	     89.95997620	    -17.54011909	     10.85631755	     49.30367545	     65.80283715	      0.00000000	      0.00000000
      3.71000000	      3.15109349	      3.21055114	      8.26093626	     -0.41522836	      0.34969853	     -1.03323693	     79.48840626	    -10.03497688	     -4.39623149	      6.13455687	      0.10706822	    -19.49796385	      0.00000000	      0.00000000	    100.65109616	      5.99398390	    -11.82411263	    147.51629297	      2.57464501	     32.75992850	      0.00000000	      0.00000000	    -27.43333094	     -4.57479314	     -9.16268559	     89.95646015	     -7.03670336	      8.42464051	     43.69487759	     55.20907874	      0.00000000	      0.00000000	     89.95986470	    -17.46099773	     11.39971476	     49.55879761	     59.10786410	      0.00000000	      0.00000000
      3.71500000	      3.07315263	      3.40527884	      8.30419114	     -0.41516743	      0.34869699	     -1.03370528	     79.72716622	    -10.14357967	     -4.22559668	      6.28494573	      0.10969300	    -19.54998435	      0.00000000	      0.00000000	    100.86492610	      6.08833067	    -12.14956154	    147.55843467	      2.57538052	     32.75164439	      0.00000000	      0.00000000	    -27.34352022	     -4.71314541	     -9.26344129	     89.95632511	     -7.06455933	      8.73346325	     43.85489877	     51.86243259	      0.00000000	      0.00000000	     89.95970702	    -17.43530223	     11.72946397	     49.73815672	     54.66621918	      0.00000000	      0.00000000
      3.72000000	      3.27387176	      3.38295700	      8.18552464	     -0.41506846	      0.34835309	     -1.03368488	     79.48136539	     -9.99294151	     -4.21987538	      6.16104689	      0.10753055	    -19.74466409	      0.00000000	      0.00000000	    100.75956489	      6.01125734	    -12.06677447	    147.68314666	      2.57755716	     32.60220815	      0.00000000	      0.00000000	    -27.51628783	     -4.71458307	     -9.10384468	     89.95638332	     -7.07533211	      8.78501778	     43.90836316	     49.77229533	      0.00000000	      0.00000000	     89.95967896	    -17.36744138	     11.97433603	     49.82969790	     51.94130602	      0.00000000	      0.00000000
      3.72500000	      3.35927597	      3.23062310	      7.95339551	     -0.41484095	      0.34770243	     -1.03324519	     79.38172226	     -9.66947465	     -4.32979365	      6.05738979	      0.10572140	    -19.83988693	      0.00000000	      0.00000000	    100.80366741	      5.73696348	    -11.82805413	    147.86751774	      2.58077504	     32.54772234	      0.00000000	      0.00000000	    -27.52723225	     -4.65936758	     -8.83007444	     89.95630463	     -7.07914326	      8.84658357	     43.95419567	     48.87896509	      0.00000000	      0.00000000	     89.95967847	    -17.34874971	     12.01887245	     49.83599464	     50.68892796	      0.00000000	      0.00000000
      3.73000000	      3.37750884	      3.36414089	      7.95383712	     -0.41470917	      0.34711276	     -1.03355461	     79.42718497	     -9.70754884	     -4.23830655	      6.09635875	      0.10640153	    -19.81265155	      0.00000000	      0.00000000	    100.84085693	      5.78097727	    -12.04547098	    147.92506923	      2.58177950	     32.59118858	      0.00000000	      0.00000000	    -27.53600183	     -4.75090991	     -8.86375601	     89.95645037	     -7.15369314	      7.17518114	     43.10073994	     68.20321237	      0.00000000	      0.00000000	     89.95976782	    -17.42331188	     10.34556679	     48.82614146	     74.61416137	      0.00000000	      0.00000000
      3.73500000	      3.42393149	      3.45117193	      7.90608985	     -0.41467899	      0.34641637	     -1.03371381	     79.48260017	     -9.68340448	     -4.33701413	      6.18321821	      0.10791752	    -19.81002160	      0.00000000	      0.00000000	    100.89680724	      5.76163582	    -12.17126073	    148.00851942	      2.58323598	     32.58362389	      0.00000000	      0.00000000	    -27.56161224	     -4.83411465	     -8.84966214	     89.95643072	     -7.12460604	      8.31932625	     43.57750605	     55.76507548	      0.00000000	      0.00000000	     89.95963772	    -17.38106804	     11.71509775	     49.38526673	     58.49983851	      0.00000000	      0.00000000
      3.74000000	      3.49287567	      3.49220979	      7.99305036	     -0.41464707	      0.34598495	     -1.03417051	     79.38480950	     -9.78428329	     -4.22507028	      6.07428264	      0.10601623	    -19.90671562	      0.00000000	      0.00000000	    100.90131278	      5.90677150	    -12.28316385	    148.04486581	      2.58387035	     32.58988157	      0.00000000	      0.00000000	    -27.63628476	     -4.77587372	     -8.93121049	     89.95646600	     -7.16011189	      7.31635672	     43.16863045	     66.61771517	      0.00000000	      0.00000000	     89.95967656	    -17.41599000	     10.33398784	     48.73653368	     75.72843648	      0.00000000	      0.00000000
      3.74500000	      3.52109176	      3.53751339	      7.99640090	     -0.41454184	      0.34538727	     -1.03447763	     79.36831379	     -9.80078008	     -4.21274036	      6.00205265	      0.10475558	    -19.98763859	      0.00000000	      0.00000000	    100.96912929	      5.94890135	    -12.38617627	    148.11178321	      2.58503828	     32.57916744	      0.00000000	      0.00000000	    -27.64991227	     -4.77860855	     -8.95729832	     89.95643144	     -7.15796825	      7.41367981	     43.17874247	     65.78663077	      0.00000000	      0.00000000	     89.95960603	    -17.43596158	     10.39909374	     48.70342064	     75.76939946	      0.00000000	      0.00000000
